<svg id="visual" viewBox="0 0 960 540" width="960" height="540" xmlns="http://www.w3.org/2000/svg" xmlns:xlink="http://www.w3.org/1999/xlink" version="1.1"><path d="M0 147L14.5 155C29 163 58 179 87.2 177.2C116.3 175.3 145.7 155.7 174.8 154.8C204 154 233 172 262 190C291 208 320 226 349 217C378 208 407 172 436.2 155.8C465.3 139.7 494.7 143.3 523.8 148.7C553 154 582 161 611 166.3C640 171.7 669 175.3 698 180.8C727 186.3 756 193.7 785.2 190.2C814.3 186.7 843.7 172.3 872.8 170.5C902 168.7 931 179.3 945.5 184.7L960 190L960 0L945.5 0C931 0 902 0 872.8 0C843.7 0 814.3 0 785.2 0C756 0 727 0 698 0C669 0 640 0 611 0C582 0 553 0 523.8 0C494.7 0 465.3 0 436.2 0C407 0 378 0 349 0C320 0 291 0 262 0C233 0 204 0 174.8 0C145.7 0 116.3 0 87.2 0C58 0 29 0 14.5 0L0 0Z" fill="#65c68a"></path><path d="M0 228L14.5 232.5C29 237 58 246 87.2 238.8C116.3 231.7 145.7 208.3 174.8 207.3C204 206.3 233 227.7 262 247.3C291 267 320 285 349 279.7C378 274.3 407 245.7 436.2 226.8C465.3 208 494.7 199 523.8 205.3C553 211.7 582 233.3 611 246C640 258.7 669 262.3 698 268.7C727 275 756 284 785.2 276.7C814.3 269.3 843.7 245.7 872.8 233.8C902 222 931 222 945.5 222L960 222L960 188L945.5 182.7C931 177.3 902 166.7 872.8 168.5C843.7 170.3 814.3 184.7 785.2 188.2C756 191.7 727 184.3 698 178.8C669 173.3 640 169.7 611 164.3C582 159 553 152 523.8 146.7C494.7 141.3 465.3 137.7 436.2 153.8C407 170 378 206 349 215C320 224 291 206 262 188C233 170 204 152 174.8 152.8C145.7 153.7 116.3 173.3 87.2 175.2C58 177 29 161 14.5 153L0 145Z" fill="#4aba75"></path><path d="M0 325L14.5 322.3C29 319.7 58 314.3 87.2 308C116.3 301.7 145.7 294.3 174.8 301.5C204 308.7 233 330.3 262 350.2C291 370 320 388 349 386.2C378 384.3 407 362.7 436.2 339.3C465.3 316 494.7 291 523.8 288.3C553 285.7 582 305.3 611 316C640 326.7 669 328.3 698 341C727 353.7 756 377.3 785.2 374.7C814.3 372 843.7 343 872.8 337.5C902 332 931 350 945.5 359L960 368L960 220L945.5 220C931 220 902 220 872.8 231.8C843.7 243.7 814.3 267.3 785.2 274.7C756 282 727 273 698 266.7C669 260.3 640 256.7 611 244C582 231.3 553 209.7 523.8 203.3C494.7 197 465.3 206 436.2 224.8C407 243.7 378 272.3 349 277.7C320 283 291 265 262 245.3C233 225.7 204 204.3 174.8 205.3C145.7 206.3 116.3 229.7 87.2 236.8C58 244 29 235 14.5 230.5L0 226Z" fill="#27ae60"></path><path d="M0 444L14.5 444C29 444 58 444 87.2 447.5C116.3 451 145.7 458 174.8 464.3C204 470.7 233 476.3 262 481.8C291 487.3 320 492.7 349 489C378 485.3 407 472.7 436.2 465.5C465.3 458.3 494.7 456.7 523.8 461.2C553 465.7 582 476.3 611 477.2C640 478 669 469 698 472.7C727 476.3 756 492.7 785.2 488.2C814.3 483.7 843.7 458.3 872.8 446.5C902 434.7 931 436.3 945.5 437.2L960 438L960 366L945.5 357C931 348 902 330 872.8 335.5C843.7 341 814.3 370 785.2 372.7C756 375.3 727 351.7 698 339C669 326.3 640 324.7 611 314C582 303.3 553 283.7 523.8 286.3C494.7 289 465.3 314 436.2 337.3C407 360.7 378 382.3 349 384.2C320 386 291 368 262 348.2C233 328.3 204 306.7 174.8 299.5C145.7 292.3 116.3 299.7 87.2 306C58 312.3 29 317.7 14.5 320.3L0 323Z" fill="#219753"></path><path d="M0 541L14.5 541C29 541 58 541 87.2 541C116.3 541 145.7 541 174.8 541C204 541 233 541 262 541C291 541 320 541 349 541C378 541 407 541 436.2 541C465.3 541 494.7 541 523.8 541C553 541 582 541 611 541C640 541 669 541 698 541C727 541 756 541 785.2 541C814.3 541 843.7 541 872.8 541C902 541 931 541 945.5 541L960 541L960 436L945.5 435.2C931 434.3 902 432.7 872.8 444.5C843.7 456.3 814.3 481.7 785.2 486.2C756 490.7 727 474.3 698 470.7C669 467 640 476 611 475.2C582 474.3 553 463.7 523.8 459.2C494.7 454.7 465.3 456.3 436.2 463.5C407 470.7 378 483.3 349 487C320 490.7 291 485.3 262 479.8C233 474.3 204 468.7 174.8 462.3C145.7 456 116.3 449 87.2 445.5C58 442 29 442 14.5 442L0 442Z" fill="#1c8047"></path></svg>